if (_typeface_js && _typeface_js.loadFace) _typeface_js.loadFace({"glyphs":{"S":{"x_min":61.25,"x_max":751.328125,"ha":826,"o":"m 415 605 b 217 755 280 623 217 642 b 431 910 217 843 272 910 b 699 856 532 910 624 889 l 699 1007 b 423 1057 647 1034 555 1057 b 61 756 145 1057 61 909 b 406 466 61 566 157 498 b 592 305 544 448 592 420 b 353 130 592 206 537 130 b 61 198 215 130 117 173 l 61 43 b 363 -16 130 6 261 -16 b 751 315 637 -16 751 117 b 415 605 751 527 627 576 "},"¦":{"x_min":104.8125,"x_max":257.25,"ha":369,"o":"m 257 451 l 257 1110 l 104 1110 l 104 451 l 257 451 m 257 -277 l 257 381 l 104 381 l 104 -277 l 257 -277 "},"/":{"x_min":0,"x_max":630.203125,"ha":643,"o":"m 160 -277 l 630 1110 l 469 1110 l 0 -277 l 160 -277 "},"y":{"x_min":17.6875,"x_max":662.859375,"ha":694,"o":"m 17 694 l 272 23 l 103 -347 l 273 -347 l 662 694 l 494 694 l 340 198 l 186 694 l 17 694 "},"฿":{"x_min":70.859375,"x_max":661.984375,"ha":719,"o":"m 70 86 l 178 86 l 117 -87 l 246 -87 l 304 86 l 426 86 b 661 308 603 86 661 181 b 569 471 661 377 626 448 b 632 596 600 491 632 535 b 482 773 632 691 590 753 l 546 953 l 418 953 l 359 780 l 70 780 l 70 86 m 500 306 b 413 223 500 262 487 223 l 223 223 l 223 390 l 409 390 b 500 306 483 390 500 351 m 477 574 b 400 506 477 535 465 506 l 223 506 l 223 642 l 405 642 b 477 574 467 642 477 612 "},"Á":{"x_min":34.03125,"x_max":837.078125,"ha":889,"o":"m 671 0 l 837 0 l 513 1053 l 357 1053 l 34 0 l 200 0 l 272 254 l 598 254 l 671 0 m 566 381 l 304 381 l 435 842 l 566 381 m 499 1103 l 634 1256 l 450 1256 l 371 1103 l 499 1103 "},"g":{"x_min":8.609375,"x_max":705,"ha":728,"o":"m 617 446 b 597 567 617 491 611 531 l 694 595 l 694 693 l 458 693 b 333 710 423 704 382 710 b 49 446 125 710 49 604 b 158 220 49 345 80 264 b 97 108 127 195 97 159 b 150 12 97 70 116 31 l 150 10 b 8 -161 78 -11 8 -66 b 322 -363 8 -304 140 -363 b 705 -116 520 -363 705 -295 b 522 77 705 -1 657 60 l 276 108 b 235 148 248 112 235 124 b 254 188 235 162 243 177 b 333 183 277 184 305 183 b 617 446 541 183 617 288 m 479 -45 b 558 -120 534 -52 558 -73 b 333 -240 558 -204 453 -240 b 154 -132 208 -240 154 -209 b 286 -21 154 -65 216 -33 l 479 -45 m 193 446 b 333 586 193 525 219 586 b 473 446 447 586 473 525 b 333 306 473 367 447 306 b 193 446 219 306 193 367 "},"²":{"x_min":50.359375,"x_max":525.390625,"ha":593,"o":"m 525 473 l 525 602 l 250 601 b 510 873 378 675 510 753 b 268 1057 510 968 455 1057 b 73 1022 200 1057 111 1039 l 73 888 b 257 925 115 906 187 925 b 355 853 329 925 355 895 b 50 573 355 791 310 741 l 50 473 l 525 473 "},"ë":{"x_min":55.8125,"x_max":635.640625,"ha":708,"o":"m 55 347 b 364 -16 55 122 137 -16 b 604 26 438 -16 526 -6 l 604 159 b 387 117 544 133 473 117 b 209 290 249 117 212 185 l 632 290 b 635 358 634 312 635 334 b 357 710 635 549 597 710 b 55 347 136 710 55 570 m 357 576 b 481 398 476 576 481 492 l 209 398 b 357 576 215 502 246 576 m 114 899 b 213 798 114 843 159 798 b 313 899 268 798 313 843 b 213 1000 313 954 268 1000 b 114 899 159 1000 114 954 m 402 899 b 502 798 402 843 447 798 b 601 899 556 798 601 843 b 502 1000 601 954 556 1000 b 402 899 447 1000 402 954 "},"Î":{"x_min":-69.421875,"x_max":431.46875,"ha":369,"o":"m 257 0 l 257 1040 l 104 1040 l 104 0 l 257 0 m 431 1103 l 258 1256 l 103 1256 l -69 1103 l 63 1103 l 181 1172 l 298 1103 l 431 1103 "},"e":{"x_min":55.8125,"x_max":635.640625,"ha":708,"o":"m 55 347 b 364 -16 55 122 137 -16 b 604 26 438 -16 526 -6 l 604 159 b 387 117 544 133 473 117 b 209 290 249 117 212 185 l 632 290 b 635 358 634 312 635 334 b 357 710 635 549 597 710 b 55 347 136 710 55 570 m 357 576 b 481 398 476 576 481 492 l 209 398 b 357 576 215 502 246 576 "},"Ã":{"x_min":34.03125,"x_max":837.078125,"ha":889,"o":"m 671 0 l 837 0 l 513 1053 l 357 1053 l 34 0 l 200 0 l 272 254 l 598 254 l 671 0 m 608 1256 b 547 1193 608 1228 598 1193 b 328 1281 479 1193 427 1281 b 166 1103 219 1281 166 1218 l 262 1103 b 323 1165 262 1131 272 1165 b 543 1078 392 1165 443 1078 b 705 1256 651 1078 705 1140 l 608 1256 m 566 381 l 304 381 l 435 842 l 566 381 "},"J":{"x_min":29.9375,"x_max":413.78125,"ha":519,"o":"m 29 0 b 144 -16 62 -11 114 -16 b 413 215 332 -16 413 63 l 413 1040 l 261 1040 l 261 238 b 136 131 261 161 209 131 b 29 148 91 131 57 140 l 29 0 "},"»":{"x_min":70.78125,"x_max":588,"ha":665,"o":"m 588 400 l 329 603 l 329 462 l 457 346 l 329 230 l 329 90 l 588 292 l 588 400 m 329 400 l 70 603 l 70 462 l 198 346 l 70 230 l 70 90 l 329 292 l 329 400 "},"©":{"x_min":83.03125,"x_max":994.96875,"ha":1100,"o":"m 537 -16 b 994 433 786 -16 994 104 b 537 884 994 763 786 884 b 83 433 291 884 83 763 b 537 -16 83 104 291 -16 m 540 88 b 190 433 349 88 190 183 b 540 778 190 684 349 778 b 887 433 728 778 887 684 b 540 88 887 183 728 88 m 302 433 b 548 179 302 254 400 179 b 700 202 608 179 657 184 l 700 315 b 563 295 668 303 628 295 b 434 433 484 295 434 335 b 563 570 434 530 484 570 b 700 551 628 570 668 562 l 700 663 b 548 687 657 681 608 687 b 302 433 400 687 302 612 "},"ò":{"x_min":56.140625,"x_max":660.46875,"ha":731,"o":"m 422 763 l 343 1040 l 159 1040 l 294 763 l 422 763 m 358 113 b 209 347 229 113 209 198 b 358 580 209 495 229 580 b 506 347 487 580 506 495 b 358 113 506 198 487 113 m 358 -16 b 660 347 600 -16 660 133 b 358 710 660 560 600 710 b 56 347 116 710 56 560 b 358 -16 56 133 116 -16 "},"^":{"x_min":21.78125,"x_max":748.609375,"ha":786,"o":"m 592 520 l 748 520 l 447 1057 l 322 1057 l 21 520 l 178 520 l 385 891 l 592 520 "},"«":{"x_min":63.96875,"x_max":581.1875,"ha":665,"o":"m 63 292 l 322 90 l 322 230 l 194 346 l 322 462 l 322 603 l 63 400 l 63 292 m 322 292 l 581 90 l 581 230 l 453 346 l 581 462 l 581 603 l 322 400 l 322 292 "},"D":{"x_min":83.03125,"x_max":819.390625,"ha":903,"o":"m 386 0 b 819 520 725 0 819 224 b 386 1040 819 816 725 1040 l 83 1040 l 83 0 l 386 0 m 235 898 l 390 898 b 660 520 594 898 660 746 b 390 142 660 294 594 142 l 235 142 l 235 898 "},"ÿ":{"x_min":18.0625,"x_max":663.46875,"ha":694,"o":"m 18 694 l 272 23 l 103 -347 l 274 -347 l 663 694 l 494 694 l 340 198 l 186 694 l 18 694 m 97 899 b 196 798 97 843 141 798 b 295 899 251 798 295 843 b 196 1000 295 954 251 1000 b 97 899 141 1000 97 954 m 385 899 b 485 798 385 843 430 798 b 584 899 539 798 584 843 b 485 1000 584 954 539 1000 b 385 899 430 1000 385 954 "},"í":{"x_min":88.390625,"x_max":363.328125,"ha":357,"o":"m 228 763 l 363 1040 l 179 1040 l 100 763 l 228 763 m 268 -9 b 298 -6 284 -9 298 -6 l 298 119 b 240 172 254 119 240 133 l 240 694 l 88 694 l 88 170 b 268 -9 88 51 144 -9 "},"w":{"x_min":24.5,"x_max":922.828125,"ha":967,"o":"m 473 510 l 615 -12 l 744 -12 l 922 694 l 767 694 l 675 216 l 543 694 l 404 694 l 272 216 l 179 694 l 24 694 l 202 -12 l 332 -12 l 473 510 "},"$":{"x_min":64,"x_max":630.046875,"ha":706,"o":"m 210 574 b 355 657 210 635 258 657 b 597 617 445 657 537 639 l 597 756 b 488 784 570 768 530 777 l 549 953 l 420 953 l 367 795 b 64 571 161 795 64 714 b 336 376 64 437 129 394 b 479 292 436 367 479 349 b 318 206 479 233 423 206 b 73 248 227 206 127 227 l 73 111 b 187 80 96 98 141 87 l 127 -87 l 257 -87 l 310 69 b 630 290 537 69 630 159 b 355 502 630 441 562 483 b 210 574 255 510 210 523 "},"\\":{"x_min":0,"x_max":630.203125,"ha":643,"o":"m 630 -277 l 160 1110 l 0 1110 l 469 -277 l 630 -277 "},"Ì":{"x_min":-17.90625,"x_max":257.03125,"ha":369,"o":"m 257 0 l 257 1040 l 104 1040 l 104 0 l 257 0 m 244 1103 l 165 1256 l -17 1256 l 116 1103 l 244 1103 "},"µ":{"x_min":69.421875,"x_max":638.359375,"ha":710,"o":"m 69 -347 l 221 -347 l 221 -8 b 303 -16 245 -14 272 -16 b 524 55 377 -16 454 6 l 548 0 l 638 0 l 638 693 l 485 693 l 485 155 b 329 114 449 134 400 114 b 221 217 257 114 221 146 l 221 693 l 69 693 l 69 -347 "},"Ç":{"x_min":69.75,"x_max":729.890625,"ha":815,"o":"m 401 -130 b 512 -198 476 -140 512 -155 b 438 -240 512 -229 484 -240 b 327 -215 386 -240 340 -220 l 327 -320 b 459 -347 346 -330 392 -347 b 621 -212 554 -347 621 -301 b 494 -83 621 -136 563 -99 l 490 -16 b 729 27 611 -16 680 6 l 729 176 b 499 129 652 144 592 129 b 226 520 305 129 226 263 b 499 911 226 777 305 911 b 729 864 592 911 652 896 l 729 1013 b 490 1057 680 1034 611 1057 b 69 520 188 1057 69 861 b 414 -11 69 209 167 19 l 401 -130 "},"-":{"x_min":40.828125,"x_max":387.921875,"ha":438,"o":"m 387 502 l 40 502 l 40 362 l 387 362 l 387 502 "},"Q":{"x_min":69.421875,"x_max":959.578125,"ha":944,"o":"m 641 28 b 856 519 822 94 856 283 b 462 1056 856 826 789 1056 b 69 519 137 1056 69 826 b 323 0 69 266 112 64 l 959 -198 l 959 -39 l 641 26 l 641 28 m 462 915 b 699 519 656 915 699 766 b 462 124 699 272 656 124 b 225 519 269 124 225 272 b 462 915 225 766 269 915 "},"M":{"x_min":83.03125,"x_max":1027.640625,"ha":1133,"o":"m 882 782 l 875 0 l 1027 0 l 1027 1040 l 831 1040 l 555 331 l 279 1040 l 83 1040 l 83 0 l 235 0 l 228 782 l 483 142 l 627 142 l 882 782 "},"C":{"x_min":69.421875,"x_max":729.5625,"ha":815,"o":"m 69 520 b 490 -16 69 179 187 -16 b 729 27 611 -16 680 6 l 729 176 b 499 129 651 144 592 129 b 225 520 304 129 225 263 b 499 911 225 777 304 911 b 729 864 592 911 651 896 l 729 1013 b 490 1057 680 1034 611 1057 b 69 520 187 1057 69 861 "},"!":{"x_min":50.359375,"x_max":249.078125,"ha":306,"o":"m 201 291 l 246 1040 l 53 1040 l 98 291 l 201 291 m 50 84 b 149 -16 50 29 95 -16 b 249 84 204 -16 249 29 b 149 185 249 140 204 185 b 50 84 95 185 50 140 "},"ç":{"x_min":56.03125,"x_max":558.28125,"ha":625,"o":"m 209 347 b 379 573 209 481 247 573 b 558 541 458 573 509 560 l 558 675 b 370 710 505 699 441 710 b 56 347 129 710 56 563 b 305 -12 56 151 115 12 l 292 -130 b 403 -198 367 -140 403 -155 b 329 -240 403 -229 375 -240 b 218 -215 277 -240 231 -220 l 218 -320 b 350 -347 237 -330 283 -347 b 512 -212 445 -347 512 -301 b 385 -83 512 -136 454 -99 l 381 -16 b 558 18 448 -15 507 -4 l 558 152 b 379 120 509 133 458 120 b 209 347 247 120 209 212 "},"È":{"x_min":82.640625,"x_max":703.3125,"ha":785,"o":"m 659 610 l 235 610 l 235 898 l 703 898 l 703 1040 l 82 1040 l 82 0 l 703 0 l 703 142 l 235 142 l 235 467 l 659 467 l 659 610 m 467 1103 l 388 1256 l 205 1256 l 339 1103 l 467 1103 "},"{":{"x_min":24.640625,"x_max":296.859375,"ha":344,"o":"m 24 495 l 24 351 l 45 351 b 95 297 81 349 96 330 l 70 -134 b 231 -285 65 -241 136 -285 l 296 -285 l 296 -141 l 276 -141 b 219 -87 234 -141 217 -122 l 243 317 b 197 423 246 359 228 399 b 243 528 228 446 246 485 l 219 934 b 276 988 217 968 234 988 l 296 988 l 296 1132 l 231 1132 b 70 981 136 1132 65 1088 l 95 549 b 40 495 96 513 80 495 l 24 495 "},"X":{"x_min":19.0625,"x_max":846.609375,"ha":907,"o":"m 432 625 l 212 1040 l 31 1040 l 328 532 l 19 0 l 204 0 l 432 419 l 661 0 l 846 0 l 537 532 l 834 1040 l 653 1040 l 432 625 "},"ô":{"x_min":56.0625,"x_max":659.9375,"ha":731,"o":"m 358 -16 b 659 347 600 -16 659 133 b 358 710 659 560 600 710 b 56 347 115 710 56 560 b 358 -16 56 133 115 -16 m 358 113 b 209 347 228 113 209 198 b 358 580 209 495 228 580 b 506 347 487 580 506 495 b 358 113 506 198 487 113 m 484 763 l 613 763 l 435 1040 l 280 1040 l 102 763 l 231 763 l 358 920 l 484 763 "},"¼":{"x_min":42.5,"x_max":1285.1875,"ha":1371,"o":"m 325 0 l 1048 1040 l 908 1040 l 185 0 l 325 0 m 268 1057 l 42 992 l 42 906 l 190 910 l 190 473 l 332 473 l 332 1057 l 268 1057 m 1183 127 l 1285 127 l 1285 255 l 1183 255 l 1183 584 l 1038 584 l 729 220 l 729 127 l 1045 127 l 1045 0 l 1183 0 l 1183 127 m 1049 412 l 1045 255 l 912 254 l 1049 412 "},"#":{"x_min":13.609375,"x_max":871.109375,"ha":903,"o":"m 108 521 l 235 521 l 183 345 l 51 345 l 13 215 l 144 215 l 81 0 l 232 0 l 295 215 l 458 215 l 396 0 l 547 0 l 609 215 l 737 215 l 775 345 l 649 345 l 700 521 l 833 521 l 871 652 l 739 652 l 803 867 l 651 867 l 588 652 l 424 652 l 488 867 l 337 867 l 273 652 l 147 652 l 108 521 m 386 521 l 549 521 l 498 345 l 334 345 l 386 521 "},"Ê":{"x_min":82.796875,"x_max":703.46875,"ha":785,"o":"m 659 610 l 235 610 l 235 898 l 703 898 l 703 1040 l 82 1040 l 82 0 l 703 0 l 703 142 l 235 142 l 235 467 l 659 467 l 659 610 m 654 1103 l 481 1256 l 326 1256 l 153 1103 l 286 1103 l 404 1172 l 521 1103 l 654 1103 "},")":{"x_min":40.828125,"x_max":364.78125,"ha":442,"o":"m 194 -285 b 364 423 264 -181 364 72 b 194 1132 364 774 264 1028 l 40 1132 b 212 423 110 1028 212 774 b 40 -285 212 72 110 -181 l 194 -285 "},"Å":{"x_min":33.578125,"x_max":836.421875,"ha":889,"o":"m 670 0 l 836 0 l 512 1053 l 357 1053 l 33 0 l 199 0 l 271 254 l 598 254 l 670 0 m 565 381 l 304 381 l 435 842 l 565 381 m 299 1179 b 435 1065 299 1092 358 1065 b 571 1179 511 1065 571 1092 b 435 1293 571 1267 511 1293 b 299 1179 358 1293 299 1267 m 481 1179 b 435 1156 481 1164 466 1156 b 388 1179 403 1156 388 1164 b 435 1203 388 1195 403 1203 b 481 1179 466 1203 481 1195 "},"ø":{"x_min":56,"x_max":660,"ha":731,"o":"m 358 -17 b 660 346 600 -17 660 132 b 595 613 660 456 643 547 l 653 693 l 551 693 l 533 668 b 357 710 489 694 432 710 b 56 346 115 710 56 560 b 120 80 56 236 72 143 l 62 0 l 164 0 l 181 23 b 358 -17 224 -1 283 -17 m 209 346 b 358 579 209 495 228 579 b 451 553 400 579 430 569 l 219 220 b 209 346 211 254 209 296 m 358 113 b 262 139 315 113 284 121 l 496 471 b 506 346 503 436 506 395 b 358 113 506 197 487 113 "},"â":{"x_min":49.984375,"x_max":604.046875,"ha":689,"o":"m 451 478 l 451 443 l 299 431 b 49 205 145 419 49 355 b 284 -16 49 94 108 -16 b 489 55 359 -16 435 9 l 514 0 l 604 0 l 604 463 b 329 710 604 610 552 710 b 105 670 248 710 158 693 l 105 535 b 318 577 157 556 229 577 b 451 478 418 577 451 549 m 459 763 l 589 763 l 410 1040 l 255 1040 l 77 763 l 206 763 l 333 920 l 459 763 m 451 337 l 451 156 b 305 110 409 128 367 110 b 201 213 222 110 201 160 b 308 320 201 285 240 312 l 451 337 "},"}":{"x_min":41.578125,"x_max":313.796875,"ha":344,"o":"m 297 495 b 243 549 257 495 241 513 l 267 981 b 108 1132 272 1088 203 1132 l 41 1132 l 41 988 l 61 988 b 119 934 104 988 120 968 l 94 528 b 143 423 93 485 112 442 b 94 317 112 403 93 359 l 119 -87 b 61 -141 120 -122 104 -141 l 41 -141 l 41 -285 l 108 -285 b 267 -134 203 -285 272 -241 l 243 297 b 293 351 241 330 256 349 l 313 351 l 313 495 l 297 495 "},"Ä":{"x_min":34.265625,"x_max":836.734375,"ha":889,"o":"m 670 0 l 836 0 l 512 1053 l 358 1053 l 34 0 l 200 0 l 272 254 l 598 254 l 670 0 m 565 381 l 305 381 l 435 842 l 565 381 m 192 1179 b 291 1078 192 1124 237 1078 b 390 1179 345 1078 390 1124 b 291 1281 390 1235 345 1281 b 192 1179 237 1281 192 1235 m 480 1179 b 579 1078 480 1124 525 1078 b 678 1179 633 1078 678 1124 b 579 1281 678 1235 633 1281 b 480 1179 525 1281 480 1235 "},"¸":{"x_min":212,"x_max":506,"ha":731,"o":"m 286 -130 b 397 -198 361 -140 397 -155 b 323 -240 397 -229 369 -240 b 212 -215 271 -240 225 -220 l 212 -320 b 344 -347 231 -330 277 -347 b 506 -212 439 -347 506 -301 b 379 -83 506 -136 448 -99 l 373 0 l 300 0 l 286 -130 "},"a":{"x_min":50.359375,"x_max":604.328125,"ha":689,"o":"m 451 478 l 451 443 l 299 431 b 50 205 145 419 50 355 b 284 -16 50 94 108 -16 b 490 55 359 -16 435 9 l 514 0 l 604 0 l 604 463 b 329 710 604 610 552 710 b 106 670 249 710 159 693 l 106 535 b 318 577 157 556 230 577 b 451 478 419 577 451 549 m 451 337 l 451 156 b 306 110 409 128 367 110 b 201 213 223 110 201 160 b 308 320 201 285 240 312 l 451 337 "},"=":{"x_min":103.4375,"x_max":713.21875,"ha":833,"o":"m 713 520 l 713 667 l 103 667 l 103 520 l 713 520 m 713 276 l 713 423 l 103 423 l 103 276 l 713 276 "},"N":{"x_min":83.03125,"x_max":812.578125,"ha":914,"o":"m 812 0 l 812 1040 l 661 1040 l 665 301 l 221 1040 l 83 1040 l 83 0 l 234 0 l 230 739 l 673 0 l 812 0 "},"ú":{"x_min":69.3125,"x_max":638.25,"ha":728,"o":"m 417 763 l 552 1040 l 368 1040 l 289 763 l 417 763 m 69 693 l 69 203 b 303 -16 69 70 130 -16 b 523 55 376 -16 454 6 l 548 0 l 638 0 l 638 693 l 485 693 l 485 155 b 329 114 449 134 400 114 b 221 217 257 114 221 146 l 221 693 l 69 693 "},"2":{"x_min":51.71875,"x_max":649.25,"ha":722,"o":"m 479 612 b 51 104 479 503 413 390 l 51 0 l 649 0 l 649 144 l 257 142 b 635 625 536 360 635 460 b 333 884 635 750 592 884 b 99 842 247 884 151 864 l 99 696 b 321 742 159 721 232 742 b 479 612 442 742 479 696 "},"ü":{"x_min":69.421875,"x_max":638.359375,"ha":728,"o":"m 110 899 b 209 797 110 843 155 797 b 308 899 264 797 308 843 b 209 1000 308 954 264 1000 b 110 899 155 1000 110 954 m 398 899 b 498 797 398 843 443 797 b 597 899 552 797 597 843 b 498 1000 597 954 552 1000 b 398 899 443 1000 398 954 m 69 693 l 69 203 b 303 -16 69 70 130 -16 b 524 55 377 -16 454 6 l 548 0 l 638 0 l 638 693 l 485 693 l 485 155 b 329 114 449 134 400 114 b 221 217 257 114 221 146 l 221 693 l 69 693 "},"¯":{"x_min":159.25,"x_max":556.6875,"ha":731,"o":"m 159 839 l 556 839 l 556 963 l 159 963 l 159 839 "},"Z":{"x_min":40.828125,"x_max":789.453125,"ha":847,"o":"m 789 0 l 789 149 l 246 147 l 769 936 l 769 1040 l 74 1040 l 74 891 l 563 893 l 40 104 l 40 0 l 789 0 "},"u":{"x_min":69.421875,"x_max":638.359375,"ha":728,"o":"m 69 693 l 69 203 b 303 -16 69 70 130 -16 b 524 55 377 -16 454 6 l 548 0 l 638 0 l 638 693 l 485 693 l 485 155 b 329 114 449 134 400 114 b 221 217 257 114 221 146 l 221 693 l 69 693 "},"Ó":{"x_min":69.421875,"x_max":856.140625,"ha":944,"o":"m 462 -16 b 856 520 790 -16 856 226 b 462 1057 856 814 790 1057 b 69 520 134 1057 69 814 b 462 -16 69 226 134 -16 m 462 916 b 699 520 656 916 699 767 b 462 124 699 273 656 124 b 225 520 269 124 225 273 b 462 916 225 767 269 916 m 526 1103 l 661 1256 l 477 1256 l 398 1103 l 526 1103 "},"k":{"x_min":74.859375,"x_max":694.171875,"ha":725,"o":"m 665 694 l 468 694 l 227 424 l 227 1040 l 74 1040 l 74 0 l 227 0 l 227 240 l 292 308 l 504 0 l 694 0 l 389 408 l 665 694 "},"Ù":{"x_min":76.21875,"x_max":816.671875,"ha":911,"o":"m 446 -16 b 816 327 585 -16 816 36 l 816 1040 l 664 1040 l 664 341 b 446 124 664 145 530 124 b 228 341 362 124 228 145 l 228 1040 l 76 1040 l 76 327 b 446 -16 76 36 307 -16 m 510 1103 l 431 1256 l 247 1256 l 382 1103 l 510 1103 "},"¢":{"x_min":63.640625,"x_max":617.609375,"ha":700,"o":"m 63 433 b 251 93 63 256 124 140 l 187 -87 l 316 -87 l 369 69 l 397 69 b 617 108 477 69 563 84 l 617 245 b 418 209 571 229 506 209 b 216 433 274 209 216 290 b 418 656 216 576 274 656 b 617 620 506 656 571 637 l 617 757 b 512 786 589 770 552 780 l 574 953 l 444 953 l 391 796 b 63 433 171 793 63 664 "},"ß":{"x_min":84.390625,"x_max":740.453125,"ha":782,"o":"m 302 516 b 475 320 302 410 348 362 b 590 209 544 298 590 273 b 473 115 590 151 558 115 b 303 159 402 115 336 144 l 303 23 b 488 -16 345 0 412 -16 b 740 209 649 -16 740 74 b 547 434 740 333 690 384 b 450 531 472 460 450 481 b 628 830 450 641 628 652 b 359 1057 628 974 543 1057 b 84 831 174 1057 84 979 l 84 0 l 236 0 l 236 823 b 359 923 236 891 288 923 b 480 825 427 923 480 893 b 302 516 480 687 302 694 "},"é":{"x_min":56.0625,"x_max":635.890625,"ha":708,"o":"m 56 347 b 365 -16 56 122 137 -16 b 604 26 438 -16 527 -6 l 604 159 b 388 117 544 133 473 117 b 209 290 249 117 212 185 l 633 290 b 635 358 634 312 635 334 b 358 710 635 549 597 710 b 56 347 136 710 56 570 m 358 576 b 482 398 476 576 482 492 l 209 398 b 358 576 215 502 246 576 m 422 763 l 556 1040 l 373 1040 l 294 763 l 422 763 "},"s":{"x_min":57.171875,"x_max":575.75,"ha":646,"o":"m 205 494 b 336 580 205 556 255 580 b 544 541 421 580 485 563 l 544 675 b 333 710 491 699 426 710 b 57 489 133 710 57 609 b 313 287 57 370 107 305 b 426 201 404 278 426 252 b 264 115 426 140 372 115 b 61 154 178 115 106 137 l 61 20 b 285 -16 107 1 191 -16 b 575 206 503 -16 575 87 b 318 416 575 335 522 398 b 205 494 230 424 205 445 "},"B":{"x_min":83.078125,"x_max":781.328125,"ha":844,"o":"m 83 0 l 434 0 b 781 305 698 0 781 133 b 627 549 781 424 725 520 b 750 756 705 587 750 667 b 426 1040 750 917 675 1040 l 83 1040 l 83 0 m 235 474 l 441 474 b 617 309 570 474 617 416 b 439 142 617 223 582 142 l 235 142 l 235 474 m 586 749 b 435 606 586 682 558 606 l 235 606 l 235 898 l 430 898 b 586 749 563 898 586 818 "},"?":{"x_min":31.109375,"x_max":604.140625,"ha":660,"o":"m 247 910 b 450 763 408 910 450 856 b 270 576 450 641 371 619 b 157 405 178 535 157 473 b 176 291 157 363 167 324 l 272 291 b 356 485 272 392 266 452 b 604 767 484 532 604 584 b 258 1057 604 923 548 1057 b 31 1022 168 1057 74 1040 l 31 874 b 247 910 77 893 168 910 m 144 84 b 243 -16 144 29 189 -16 b 342 84 297 -16 342 29 b 243 185 342 140 297 185 b 144 84 189 185 144 140 "},"H":{"x_min":83.03125,"x_max":801.703125,"ha":903,"o":"m 801 0 l 801 1040 l 649 1040 l 649 610 l 235 610 l 235 1040 l 83 1040 l 83 0 l 235 0 l 235 467 l 649 467 l 649 0 l 801 0 "},"î":{"x_min":-91.28125,"x_max":420.5,"ha":357,"o":"m 268 -9 b 298 -6 284 -9 298 -6 l 298 119 b 240 172 254 119 240 133 l 240 694 l 88 694 l 88 170 b 268 -9 88 51 144 -9 m 291 763 l 420 763 l 242 1040 l 87 1040 l -91 763 l 38 763 l 164 920 l 291 763 "},"c":{"x_min":55.8125,"x_max":558.0625,"ha":625,"o":"m 209 347 b 379 573 209 481 247 573 b 558 541 458 573 509 560 l 558 675 b 370 710 504 699 441 710 b 55 347 129 710 55 563 b 370 -16 55 130 129 -16 b 558 18 441 -16 504 -5 l 558 152 b 379 120 509 133 458 120 b 209 347 247 120 209 212 "},"¶":{"x_min":38.109375,"x_max":769.03125,"ha":869,"o":"m 537 0 l 537 390 l 616 390 l 616 0 l 769 0 l 769 1040 l 392 1040 b 38 714 129 1040 38 885 b 385 390 38 545 127 392 l 385 0 l 537 0 m 204 714 b 385 898 204 792 232 898 l 385 531 b 204 714 232 531 204 637 m 616 531 l 537 531 l 537 898 l 616 898 l 616 531 "},"¥":{"x_min":25.859375,"x_max":790.8125,"ha":833,"o":"m 763 396 l 522 396 l 564 470 l 763 470 l 763 581 l 627 581 l 790 867 l 609 867 l 408 462 l 206 867 l 25 867 l 187 581 l 53 581 l 53 470 l 251 470 l 292 396 l 53 396 l 53 285 l 332 285 l 332 0 l 484 0 l 484 285 l 763 285 l 763 396 "},"(":{"x_min":68.0625,"x_max":392,"ha":442,"o":"m 392 -285 b 220 423 322 -181 220 72 b 392 1132 220 774 322 1028 l 238 1132 b 68 423 168 1028 68 774 b 238 -285 68 72 168 -181 l 392 -285 "},"U":{"x_min":76.21875,"x_max":816.671875,"ha":911,"o":"m 446 -16 b 816 327 585 -16 816 36 l 816 1040 l 664 1040 l 664 341 b 446 124 664 145 530 124 b 228 341 362 124 228 145 l 228 1040 l 76 1040 l 76 327 b 446 -16 76 36 307 -16 "},"Ñ":{"x_min":83.03125,"x_max":812.578125,"ha":914,"o":"m 812 0 l 812 1040 l 661 1040 l 665 301 l 221 1040 l 83 1040 l 83 0 l 234 0 l 230 739 l 673 0 l 812 0 m 620 1256 b 559 1193 620 1228 611 1193 b 340 1281 491 1193 439 1281 b 178 1103 231 1281 178 1218 l 274 1103 b 336 1165 274 1131 284 1165 b 555 1078 404 1165 455 1078 b 717 1256 664 1078 717 1140 l 620 1256 "},"F":{"x_min":83.03125,"x_max":692.8125,"ha":756,"o":"m 649 605 l 235 605 l 235 898 l 692 898 l 692 1040 l 83 1040 l 83 0 l 235 0 l 235 462 l 649 462 l 649 605 "},"­":{"x_min":40.828125,"x_max":387.921875,"ha":438,"o":"m 387 502 l 40 502 l 40 362 l 387 362 l 387 502 "},":":{"x_min":50.359375,"x_max":249.078125,"ha":301,"o":"m 50 84 b 149 -16 50 29 95 -16 b 249 84 204 -16 249 29 b 149 185 249 140 204 185 b 50 84 95 185 50 140 m 50 520 b 149 419 50 464 95 419 b 249 520 204 419 249 464 b 149 621 249 576 204 621 b 50 520 95 621 50 576 "},"Û":{"x_min":75.640625,"x_max":816.359375,"ha":911,"o":"m 446 -16 b 816 327 584 -16 816 36 l 816 1040 l 663 1040 l 663 341 b 446 124 663 145 530 124 b 228 341 361 124 228 145 l 228 1040 l 75 1040 l 75 327 b 446 -16 75 36 307 -16 m 696 1103 l 523 1256 l 368 1256 l 195 1103 l 328 1103 l 446 1172 l 563 1103 l 696 1103 "},"*":{"x_min":39.46875,"x_max":641.078125,"ha":694,"o":"m 434 1040 l 246 1040 l 273 842 l 98 931 l 39 748 l 231 713 l 95 570 l 249 458 l 340 634 l 431 458 l 585 570 l 447 713 l 641 748 l 582 931 l 405 842 l 434 1040 "},"°":{"x_min":50.359375,"x_max":464.140625,"ha":525,"o":"m 464 856 b 257 1057 464 1000 379 1057 b 50 856 136 1057 50 1000 b 257 655 50 712 136 655 b 464 856 379 655 464 712 m 175 856 b 257 938 175 911 204 938 b 338 856 310 938 338 911 b 257 774 338 800 310 774 b 175 856 204 774 175 800 "},"V":{"x_min":34.03125,"x_max":837.078125,"ha":889,"o":"m 671 1040 l 435 194 l 200 1040 l 34 1040 l 357 -12 l 513 -12 l 837 1040 l 671 1040 "},"å":{"x_min":50.359375,"x_max":604.328125,"ha":689,"o":"m 451 478 l 451 443 l 299 431 b 50 205 145 419 50 355 b 284 -16 50 94 108 -16 b 490 55 359 -16 435 9 l 514 0 l 604 0 l 604 463 b 329 710 604 610 552 710 b 106 670 249 710 159 693 l 106 535 b 318 577 157 556 230 577 b 451 478 419 577 451 549 m 451 337 l 451 156 b 306 110 409 128 367 110 b 201 213 223 110 201 160 b 308 320 201 285 240 312 l 451 337 m 476 902 b 333 1044 476 999 417 1044 b 190 902 250 1044 190 999 b 333 759 190 804 250 759 b 476 902 417 759 476 804 m 281 902 b 333 953 281 939 302 953 b 386 902 364 953 386 939 b 333 850 386 864 364 850 b 281 902 302 850 281 864 "}," ":{"x_min":0,"x_max":0,"ha":278},"0":{"x_min":68.0625,"x_max":729.5625,"ha":814,"o":"m 398 -16 b 729 434 645 -16 729 119 b 398 884 729 749 645 884 b 68 434 152 884 68 749 b 398 -16 68 119 152 -16 m 398 742 b 577 434 537 742 577 650 b 398 124 577 215 537 124 b 220 434 259 124 220 215 b 398 742 220 650 259 742 "},"¾":{"x_min":64.671875,"x_max":1436.1875,"ha":1525,"o":"m 477 0 l 1199 1040 l 1059 1040 l 336 0 l 477 0 m 290 456 b 562 638 471 456 562 526 b 475 781 562 714 527 763 b 539 895 509 795 539 834 b 289 1057 539 1004 445 1057 b 74 1024 203 1057 115 1042 l 74 895 b 277 925 120 909 196 925 b 396 871 362 925 396 903 b 327 817 396 839 381 817 l 157 817 l 157 710 l 334 710 b 413 650 392 710 413 692 b 278 588 413 613 379 588 b 64 620 196 588 115 605 l 64 489 b 290 456 104 471 204 456 m 1334 127 l 1436 127 l 1436 255 l 1334 255 l 1334 584 l 1189 584 l 881 220 l 881 127 l 1196 127 l 1196 0 l 1334 0 l 1334 127 m 1200 412 l 1196 255 l 1063 254 l 1200 412 "},"@":{"x_min":87.109375,"x_max":1222.28125,"ha":1336,"o":"m 918 68 b 1222 428 1163 68 1222 270 b 661 889 1222 733 1031 889 b 87 346 289 889 87 711 b 661 -196 87 -18 289 -196 b 1050 -137 793 -196 960 -171 l 1050 -26 b 661 -89 965 -64 789 -89 b 204 346 352 -89 204 39 b 661 782 204 651 352 782 b 1107 432 969 782 1107 679 b 924 173 1107 293 1075 173 l 924 624 l 834 624 l 809 568 b 605 642 764 610 684 642 b 347 346 461 642 347 547 b 605 50 347 145 461 50 b 809 124 684 50 764 82 l 834 68 l 918 68 m 499 346 b 632 508 499 463 545 508 b 771 471 698 508 744 486 l 771 221 b 632 184 744 206 698 184 b 499 346 545 184 499 229 "},"ö":{"x_min":55.8125,"x_max":660.140625,"ha":731,"o":"m 357 113 b 209 347 228 113 209 198 b 357 580 209 495 228 580 b 506 347 487 580 506 495 b 357 113 506 198 487 113 m 357 -16 b 660 347 600 -16 660 133 b 357 710 660 560 600 710 b 55 347 115 710 55 560 b 357 -16 55 133 115 -16 m 114 899 b 213 798 114 843 159 798 b 313 899 268 798 313 843 b 213 1000 313 954 268 1000 b 114 899 159 1000 114 954 m 402 899 b 502 798 402 843 447 798 b 601 899 556 798 601 843 b 502 1000 601 954 556 1000 b 402 899 447 1000 402 954 "},"i":{"x_min":65.25,"x_max":298,"ha":357,"o":"m 268 -9 b 298 -6 284 -9 298 -6 l 298 119 b 240 172 254 119 240 133 l 240 694 l 88 694 l 88 170 b 268 -9 88 51 144 -9 m 65 899 b 164 798 65 843 110 798 b 263 899 219 798 263 843 b 164 1000 263 954 219 1000 b 65 899 110 1000 65 954 "},"Õ":{"x_min":69.421875,"x_max":856.140625,"ha":944,"o":"m 462 -16 b 856 520 790 -16 856 226 b 462 1057 856 814 790 1057 b 69 520 134 1057 69 814 b 462 -16 69 226 134 -16 m 462 916 b 699 520 656 916 699 767 b 462 124 699 273 656 124 b 225 520 269 124 225 273 b 462 916 225 767 269 916 m 635 1256 b 574 1193 635 1228 626 1193 b 355 1281 506 1193 454 1281 b 193 1103 246 1281 193 1218 l 289 1103 b 351 1165 289 1131 299 1165 b 570 1078 419 1165 470 1078 b 732 1256 679 1078 732 1140 l 635 1256 "},"þ":{"x_min":74.859375,"x_max":681.921875,"ha":753,"o":"m 74 -347 l 227 -347 l 227 37 b 409 -16 276 5 341 -16 b 681 347 608 -16 681 120 b 409 710 681 573 608 710 b 227 656 341 710 276 688 l 227 1041 l 74 1041 l 74 -347 m 528 347 b 374 114 528 219 507 114 b 227 155 302 114 254 140 l 227 538 b 374 579 254 554 302 579 b 528 347 507 579 528 474 "},"]":{"x_min":40.828125,"x_max":276.3125,"ha":372,"o":"m 127 -141 l 40 -141 l 40 -285 l 276 -285 l 276 1132 l 40 1132 l 40 988 l 127 988 l 127 -141 "},"m":{"x_min":74.5625,"x_max":1011,"ha":1103,"o":"m 858 0 l 1011 0 l 1011 490 b 786 710 1011 622 947 710 b 568 641 711 710 629 685 b 394 710 540 684 485 710 b 188 638 327 710 246 684 l 164 694 l 74 694 l 74 0 l 227 0 l 227 538 b 369 579 262 559 307 579 b 466 490 431 579 466 555 l 466 0 l 619 0 l 619 459 b 614 536 619 487 617 511 b 761 579 650 558 695 579 b 858 490 821 579 858 555 l 858 0 "},"8":{"x_min":45.203125,"x_max":749.796875,"ha":811,"o":"m 397 603 b 233 759 281 603 233 677 b 397 921 233 843 277 921 b 562 759 517 921 562 843 b 397 603 562 677 513 603 m 397 119 b 196 298 239 119 196 215 b 397 474 196 413 262 474 b 598 298 532 474 598 413 b 397 119 598 215 555 119 m 397 -16 b 749 297 636 -16 749 109 b 593 548 749 415 683 517 b 717 766 664 584 717 663 b 397 1057 717 934 627 1057 b 77 766 167 1057 77 934 b 201 548 77 663 130 584 b 45 297 111 517 45 415 b 397 -16 45 109 158 -16 "},"R":{"x_min":83.5,"x_max":811.6875,"ha":863,"o":"m 235 423 l 448 423 l 633 0 l 811 0 l 598 453 b 764 731 723 498 764 596 b 415 1040 764 920 679 1040 l 83 1040 l 83 0 l 235 0 l 235 423 m 235 898 l 437 898 b 598 731 578 898 598 817 b 437 564 598 646 578 564 l 235 564 l 235 898 "},"á":{"x_min":50.25,"x_max":604.21875,"ha":689,"o":"m 451 478 l 451 443 l 299 431 b 50 205 145 419 50 355 b 284 -16 50 94 108 -16 b 489 55 359 -16 435 9 l 514 0 l 604 0 l 604 463 b 329 710 604 610 552 710 b 106 670 248 710 159 693 l 106 535 b 318 577 157 556 229 577 b 451 478 419 577 451 549 m 451 337 l 451 156 b 306 110 409 128 367 110 b 201 213 223 110 201 160 b 308 320 201 285 240 312 l 451 337 m 397 763 l 532 1040 l 348 1040 l 269 763 l 397 763 "},"×":{"x_min":100.71875,"x_max":715.953125,"ha":833,"o":"m 202 785 l 100 680 l 306 471 l 100 262 l 202 158 l 408 367 l 613 158 l 715 262 l 510 471 l 715 680 l 613 785 l 408 575 l 202 785 "},"o":{"x_min":55.8125,"x_max":660.140625,"ha":731,"o":"m 357 113 b 209 347 228 113 209 198 b 357 580 209 495 228 580 b 506 347 487 580 506 495 b 357 113 506 198 487 113 m 357 -16 b 660 347 600 -16 660 133 b 357 710 660 560 600 710 b 55 347 115 710 55 560 b 357 -16 55 133 115 -16 "},"5":{"x_min":74.859375,"x_max":714.578125,"ha":811,"o":"m 334 -189 b 714 149 499 -189 714 -153 b 377 452 714 419 552 452 b 259 448 357 452 281 451 l 259 723 l 695 723 l 695 868 l 108 868 l 108 310 l 352 310 b 558 149 455 310 558 304 b 326 -48 558 -18 439 -48 b 74 -3 215 -48 126 -24 l 74 -143 b 334 -189 129 -170 228 -189 "},"õ":{"x_min":55.8125,"x_max":660.140625,"ha":731,"o":"m 532 981 b 466 906 532 946 525 906 b 247 1009 394 906 367 1009 b 81 814 123 1009 81 927 l 183 814 b 249 889 183 849 190 889 b 468 786 321 889 348 786 b 634 981 592 786 634 868 l 532 981 m 357 113 b 209 347 228 113 209 198 b 357 580 209 495 228 580 b 506 347 487 580 506 495 b 357 113 506 198 487 113 m 357 -16 b 660 347 600 -16 660 133 b 357 710 660 560 600 710 b 55 347 115 710 55 560 b 357 -16 55 133 115 -16 "},"7":{"x_min":34.03125,"x_max":699.609375,"ha":751,"o":"m 294 -173 l 699 767 l 699 867 l 34 867 l 34 724 l 551 727 l 112 -173 l 294 -173 "},"K":{"x_min":83.03125,"x_max":823.46875,"ha":865,"o":"m 630 0 l 823 0 l 413 580 l 789 1040 l 601 1040 l 234 557 l 235 1040 l 83 1040 l 83 0 l 235 0 l 234 358 l 315 458 l 630 0 "},",":{"x_min":23.140625,"x_max":236.828125,"ha":306,"o":"m 61 147 l 23 -173 l 130 -173 l 236 147 l 61 147 "},"d":{"x_min":55.8125,"x_max":662.859375,"ha":753,"o":"m 328 710 b 55 347 129 710 55 573 b 328 -16 55 119 129 -16 b 548 55 419 -16 488 10 l 573 0 l 662 0 l 662 1041 l 510 1041 l 510 656 b 328 710 461 688 396 710 m 363 579 b 510 538 435 579 483 554 l 510 155 b 363 114 483 140 435 114 b 209 347 230 114 209 217 b 363 579 209 474 230 579 "},"¨":{"x_min":114.328125,"x_max":601.609375,"ha":731,"o":"m 114 899 b 213 798 114 843 159 798 b 313 899 268 798 313 843 b 213 1000 313 954 268 1000 b 114 899 159 1000 114 954 m 402 899 b 502 798 402 843 447 798 b 601 899 556 798 601 843 b 502 1000 601 954 556 1000 b 402 899 447 1000 402 954 "},"Ô":{"x_min":69.421875,"x_max":856.578125,"ha":944,"o":"m 463 -16 b 856 520 791 -16 856 226 b 463 1057 856 814 791 1057 b 69 520 134 1057 69 814 b 463 -16 69 226 134 -16 m 463 916 b 700 520 656 916 700 767 b 463 124 700 273 656 124 b 225 520 269 124 225 273 b 463 916 225 767 269 916 m 713 1103 l 540 1256 l 385 1256 l 212 1103 l 345 1103 l 463 1172 l 580 1103 l 713 1103 "},"E":{"x_min":83.03125,"x_max":703.703125,"ha":785,"o":"m 660 610 l 235 610 l 235 898 l 703 898 l 703 1040 l 83 1040 l 83 0 l 703 0 l 703 142 l 235 142 l 235 467 l 660 467 l 660 610 "},"Y":{"x_min":31.3125,"x_max":880.640625,"ha":931,"o":"m 880 1040 l 707 1040 l 455 555 l 204 1040 l 31 1040 l 378 417 l 378 0 l 533 0 l 533 417 l 880 1040 "},"\"":{"x_min":46.28125,"x_max":450.53125,"ha":507,"o":"m 185 694 l 225 1040 l 46 1040 l 87 694 l 185 694 m 409 694 l 450 1040 l 270 1040 l 311 694 l 409 694 "},"ê":{"x_min":56.0625,"x_max":635.96875,"ha":708,"o":"m 56 347 b 365 -16 56 122 137 -16 b 604 26 438 -16 527 -6 l 604 159 b 388 117 544 133 473 117 b 209 290 249 117 212 185 l 633 290 b 635 358 634 312 635 334 b 358 710 635 549 597 710 b 56 347 136 710 56 570 m 484 763 l 614 763 l 435 1040 l 280 1040 l 102 763 l 231 763 l 358 920 l 484 763 m 358 576 b 482 398 476 576 482 492 l 209 398 b 358 576 215 502 246 576 "},"Ï":{"x_min":-49,"x_max":411.0625,"ha":369,"o":"m 257 0 l 257 1040 l 104 1040 l 104 0 l 257 0 m -49 1179 b 50 1078 -49 1124 -4 1078 b 149 1179 104 1078 149 1124 b 50 1281 149 1235 104 1281 b -49 1179 -4 1281 -49 1235 m 212 1179 b 311 1078 212 1124 257 1078 b 411 1179 366 1078 411 1124 b 311 1281 411 1235 366 1281 b 212 1179 257 1281 212 1235 "},"Â":{"x_min":34.03125,"x_max":837.078125,"ha":889,"o":"m 671 0 l 837 0 l 513 1053 l 357 1053 l 34 0 l 200 0 l 272 254 l 598 254 l 671 0 m 566 381 l 304 381 l 435 842 l 566 381 m 686 1103 l 513 1256 l 357 1256 l 185 1103 l 318 1103 l 435 1172 l 552 1103 l 686 1103 "},"Í":{"x_min":104.8125,"x_max":379.75,"ha":369,"o":"m 257 0 l 257 1040 l 104 1040 l 104 0 l 257 0 m 245 1103 l 379 1256 l 196 1256 l 117 1103 l 245 1103 "},"´":{"x_min":294,"x_max":556.6875,"ha":731,"o":"m 421 763 l 556 1040 l 372 1040 l 294 763 l 421 763 "},"ì":{"x_min":-34.90625,"x_max":298,"ha":357,"o":"m 227 763 l 148 1040 l -34 1040 l 99 763 l 227 763 m 267 -9 b 298 -6 284 -9 298 -6 l 298 119 b 240 172 253 119 240 133 l 240 694 l 87 694 l 87 170 b 267 -9 87 51 143 -9 "},"±":{"x_min":103.4375,"x_max":713.21875,"ha":833,"o":"m 480 878 l 336 878 l 336 641 l 103 641 l 103 494 l 336 494 l 336 256 l 480 256 l 480 494 l 713 494 l 713 641 l 480 641 l 480 878 m 713 55 l 713 202 l 103 202 l 103 55 l 713 55 "},"Ú":{"x_min":76.21875,"x_max":816.671875,"ha":911,"o":"m 446 -16 b 816 327 585 -16 816 36 l 816 1040 l 664 1040 l 664 341 b 446 124 664 145 530 124 b 228 341 362 124 228 145 l 228 1040 l 76 1040 l 76 327 b 446 -16 76 36 307 -16 m 510 1103 l 645 1256 l 461 1256 l 382 1103 l 510 1103 "},"|":{"x_min":104.8125,"x_max":257.25,"ha":369,"o":"m 257 -277 l 257 1110 l 104 1110 l 104 -277 l 257 -277 "},"§":{"x_min":61.625,"x_max":833.203125,"ha":914,"o":"m 383 83 b 584 -59 513 62 584 40 b 388 -212 584 -142 549 -212 b 103 -154 297 -212 213 -201 l 102 -312 b 386 -363 168 -342 264 -363 b 744 -63 682 -363 744 -191 b 703 87 744 -1 731 48 b 833 327 799 148 833 245 b 511 610 833 503 768 570 b 310 753 380 631 310 653 b 505 906 310 836 345 906 b 791 849 596 906 683 898 l 792 1006 b 508 1057 724 1036 630 1057 b 150 757 211 1057 150 885 b 189 606 150 694 162 644 b 61 366 95 545 61 448 b 383 83 61 190 126 123 m 489 469 b 674 328 611 446 674 430 b 577 180 674 269 648 210 b 405 224 535 198 475 212 b 220 365 283 247 220 263 b 315 513 220 424 246 483 b 489 469 359 494 417 480 "},"Ý":{"x_min":31.3125,"x_max":880.640625,"ha":931,"o":"m 880 1040 l 707 1040 l 455 555 l 204 1040 l 31 1040 l 378 417 l 378 0 l 533 0 l 533 417 l 880 1040 m 519 1103 l 654 1256 l 470 1256 l 392 1103 l 519 1103 "},"b":{"x_min":74.859375,"x_max":681.921875,"ha":753,"o":"m 409 710 b 227 656 341 710 276 688 l 227 1041 l 74 1041 l 74 0 l 164 0 l 189 55 b 409 -16 249 10 318 -16 b 681 347 608 -16 681 119 b 409 710 681 573 608 710 m 374 579 b 528 347 507 579 528 474 b 374 114 528 217 507 114 b 227 155 302 114 254 140 l 227 538 b 374 579 254 554 302 579 "},"q":{"x_min":55.8125,"x_max":662.859375,"ha":753,"o":"m 328 -16 b 510 37 396 -16 461 5 l 510 -347 l 662 -347 l 662 694 l 573 694 l 548 638 b 328 710 488 683 419 710 b 55 347 129 710 55 574 b 328 -16 55 120 129 -16 m 363 114 b 209 347 230 114 209 219 b 363 579 209 476 230 579 b 510 538 435 579 483 554 l 510 155 b 363 114 483 140 435 114 "},"Ö":{"x_min":69.421875,"x_max":856.140625,"ha":944,"o":"m 462 -16 b 856 520 790 -16 856 226 b 462 1057 856 814 790 1057 b 69 520 134 1057 69 814 b 462 -16 69 226 134 -16 m 462 916 b 699 520 656 916 699 767 b 462 124 699 273 656 124 b 225 520 269 124 225 273 b 462 916 225 767 269 916 m 219 1179 b 318 1078 219 1124 264 1078 b 417 1179 372 1078 417 1124 b 318 1281 417 1235 372 1281 b 219 1179 264 1281 219 1235 m 507 1179 b 607 1078 507 1124 552 1078 b 706 1179 661 1078 706 1124 b 607 1281 706 1235 661 1281 b 507 1179 552 1281 507 1235 "},"z":{"x_min":23.140625,"x_max":579.828125,"ha":610,"o":"m 579 0 l 579 137 l 219 136 l 564 584 l 564 694 l 47 694 l 47 556 l 368 557 l 23 109 l 23 0 l 579 0 "},"ã":{"x_min":50.359375,"x_max":609.78125,"ha":689,"o":"m 451 478 l 451 443 l 299 431 b 50 205 145 419 50 355 b 284 -16 50 94 108 -16 b 490 55 359 -16 435 9 l 514 0 l 604 0 l 604 463 b 329 710 604 610 552 710 b 106 670 249 710 159 693 l 106 535 b 318 577 157 556 230 577 b 451 478 419 577 451 549 m 451 337 l 451 156 b 306 110 409 128 367 110 b 201 213 223 110 201 160 b 308 320 201 285 240 312 l 451 337 m 507 981 b 442 906 507 946 500 906 b 223 1008 370 906 343 1008 b 57 814 99 1008 57 927 l 159 814 b 224 889 159 849 166 889 b 443 786 296 889 323 786 b 609 981 567 786 609 868 l 507 981 "},"æ":{"x_min":50.5,"x_max":1031.859375,"ha":1113,"o":"m 452 293 b 472 174 453 241 461 206 b 306 110 423 131 367 110 b 201 202 220 110 201 149 b 315 293 201 257 228 293 l 452 293 m 761 -16 b 1000 26 834 -16 922 -7 l 1000 159 b 784 117 940 133 869 117 b 605 289 645 117 608 185 l 1029 289 b 1031 357 1030 312 1031 334 b 754 710 1031 549 993 710 b 550 642 682 708 600 693 b 329 710 511 685 441 710 b 106 669 249 710 159 693 l 106 535 b 318 576 158 556 231 576 b 452 478 423 576 452 547 l 452 402 l 303 402 b 50 196 138 402 50 342 b 284 -16 50 88 109 -16 b 529 69 367 -16 453 4 b 761 -16 577 13 652 -16 m 754 575 b 878 397 872 575 878 492 l 605 397 b 754 575 611 502 642 575 "},"®":{"x_min":82.84375,"x_max":994.796875,"ha":1100,"o":"m 615 197 l 756 197 l 657 373 b 723 510 707 402 723 458 b 557 671 723 601 681 671 l 338 671 l 338 197 l 462 197 l 462 349 l 541 349 l 615 197 m 600 506 b 555 455 600 484 593 455 l 462 455 l 462 557 l 555 557 b 600 506 585 557 600 537 m 537 -16 b 994 433 786 -16 994 104 b 537 884 994 763 786 884 b 82 433 291 884 82 763 b 537 -16 82 104 291 -16 m 540 88 b 190 433 349 88 190 183 b 540 778 190 684 349 778 b 887 433 728 778 887 684 b 540 88 887 183 728 88 "},"É":{"x_min":83.03125,"x_max":703.703125,"ha":785,"o":"m 660 610 l 235 610 l 235 898 l 703 898 l 703 1040 l 83 1040 l 83 0 l 703 0 l 703 142 l 235 142 l 235 467 l 660 467 l 660 610 m 468 1103 l 602 1256 l 419 1256 l 340 1103 l 468 1103 "},"~":{"x_min":61.25,"x_max":605.703125,"ha":681,"o":"m 465 492 b 198 593 359 492 337 593 b 61 546 136 593 84 568 l 61 396 b 201 452 78 416 132 452 b 468 350 307 452 329 350 b 605 398 530 350 582 375 l 605 548 b 465 492 588 528 534 492 "},"³":{"x_min":64.671875,"x_max":562.84375,"ha":624,"o":"m 290 456 b 562 638 471 456 562 526 b 475 781 562 714 527 763 b 539 895 509 795 539 834 b 289 1057 539 1004 445 1057 b 74 1024 203 1057 115 1042 l 74 895 b 277 925 120 909 196 925 b 396 871 362 925 396 903 b 327 817 396 839 381 817 l 157 817 l 157 710 l 334 710 b 413 650 392 710 413 692 b 278 588 413 613 379 588 b 64 620 196 588 115 605 l 64 489 b 290 456 104 471 204 456 "},"¡":{"x_min":50.359375,"x_max":249.078125,"ha":306,"o":"m 98 402 l 53 -347 l 246 -347 l 201 402 l 98 402 m 249 609 b 149 710 249 664 204 710 b 50 609 95 710 50 664 b 149 508 50 553 95 508 b 249 609 204 508 249 553 "},"[":{"x_min":88.46875,"x_max":323.9375,"ha":372,"o":"m 236 988 l 323 988 l 323 1132 l 88 1132 l 88 -285 l 323 -285 l 323 -141 l 236 -141 l 236 988 "},"L":{"x_min":83.03125,"x_max":679.203125,"ha":728,"o":"m 235 1040 l 83 1040 l 83 0 l 679 0 l 679 142 l 235 142 l 235 1040 "},"＿":{"x_min":0,"x_max":816.671875,"ha":833,"o":"m 0 -258 l 816 -258 l 816 -131 l 0 -131 l 0 -258 "}," ":{"x_min":0,"x_max":0,"ha":278},"%":{"x_min":59.890625,"x_max":1312.109375,"ha":1400,"o":"m 455 0 l 1057 867 l 917 867 l 314 0 l 455 0 m 1312 251 b 1065 519 1312 427 1234 519 b 820 251 898 519 820 426 b 1065 -16 820 74 898 -16 b 1312 251 1234 -16 1312 76 m 959 251 b 1065 392 959 358 992 392 b 1173 251 1140 392 1173 358 b 1065 109 1173 144 1140 109 b 959 251 992 109 959 144 m 551 616 b 306 884 551 792 475 884 b 59 616 137 884 59 791 b 306 348 59 439 137 348 b 551 616 475 348 551 441 m 198 616 b 306 757 198 723 231 757 b 413 616 379 757 413 723 b 306 474 413 509 379 474 b 198 616 231 474 198 509 "},"P":{"x_min":83.03125,"x_max":764.953125,"ha":806,"o":"m 235 390 l 411 390 b 764 714 673 390 764 544 b 411 1040 764 885 673 1040 l 83 1040 l 83 0 l 235 0 l 235 390 m 235 898 l 417 898 b 598 714 570 898 598 792 b 417 531 598 637 570 531 l 235 531 l 235 898 "},"À":{"x_min":34.03125,"x_max":837.078125,"ha":889,"o":"m 671 0 l 837 0 l 513 1053 l 357 1053 l 34 0 l 200 0 l 272 254 l 598 254 l 671 0 m 566 381 l 304 381 l 435 842 l 566 381 m 499 1103 l 420 1256 l 236 1256 l 371 1103 l 499 1103 "},"_":{"x_min":0,"x_max":400.171875,"ha":408,"o":"m 0 -258 l 400 -258 l 400 -131 l 0 -131 l 0 -258 "},"ñ":{"x_min":74.859375,"x_max":643.8125,"ha":728,"o":"m 643 0 l 643 490 b 409 710 643 623 582 710 b 189 638 336 710 258 687 l 164 694 l 74 694 l 74 0 l 227 0 l 227 538 b 383 579 264 559 313 579 b 491 476 455 579 491 547 l 491 0 l 643 0 m 536 981 b 470 906 536 946 529 906 b 251 1009 398 906 371 1009 b 85 815 127 1009 85 927 l 187 815 b 253 889 187 849 194 889 b 472 787 325 889 352 787 b 638 981 596 787 638 869 l 536 981 "},"+":{"x_min":103.4375,"x_max":713.21875,"ha":833,"o":"m 480 782 l 336 782 l 336 545 l 103 545 l 103 398 l 336 398 l 336 161 l 480 161 l 480 398 l 713 398 l 713 545 l 480 545 l 480 782 "},"½":{"x_min":42.1875,"x_max":1309.390625,"ha":1389,"o":"m 325 0 l 1048 1040 l 907 1040 l 185 0 l 325 0 m 268 1057 l 42 992 l 42 906 l 190 910 l 190 473 l 332 473 l 332 1057 l 268 1057 m 1309 0 l 1309 129 l 1034 127 b 1294 399 1162 202 1294 280 b 1052 584 1294 495 1239 584 b 857 549 984 584 895 566 l 857 415 b 1041 452 899 433 971 452 b 1139 380 1113 452 1139 421 b 834 99 1139 317 1094 267 l 834 0 l 1309 0 "},"Æ":{"x_min":20.421875,"x_max":1246.78125,"ha":1311,"o":"m 1203 610 l 767 610 l 724 898 l 1246 898 l 1246 1040 l 517 1040 b 20 0 351 694 185 347 l 196 0 l 308 254 l 657 254 l 692 0 l 1246 0 l 1246 142 l 838 142 l 789 467 l 1203 467 l 1203 610 m 574 852 l 639 381 l 364 381 l 574 852 "},"Ë":{"x_min":83.03125,"x_max":703.703125,"ha":785,"o":"m 660 610 l 235 610 l 235 898 l 703 898 l 703 1040 l 83 1040 l 83 0 l 703 0 l 703 142 l 235 142 l 235 467 l 660 467 l 660 610 m 160 1179 b 259 1078 160 1124 205 1078 b 359 1179 314 1078 359 1124 b 259 1281 359 1235 314 1281 b 160 1179 205 1281 160 1235 m 449 1179 b 548 1078 449 1124 494 1078 b 647 1179 602 1078 647 1124 b 548 1281 647 1235 602 1281 b 449 1179 494 1281 449 1235 "},"'":{"x_min":46.28125,"x_max":225.9375,"ha":278,"o":"m 185 694 l 225 1040 l 46 1040 l 87 694 l 185 694 "},"ª":{"x_min":36.75,"x_max":470.9375,"ha":538,"o":"m 338 851 l 230 844 b 36 676 102 836 36 782 b 215 505 36 567 88 505 b 362 552 269 505 322 525 l 374 521 l 470 521 l 470 872 b 265 1058 470 983 432 1058 b 77 1025 202 1058 127 1046 l 77 911 b 250 944 125 929 187 944 b 338 872 319 944 338 919 l 338 851 m 338 765 l 338 640 b 240 612 313 624 272 612 b 161 683 185 612 161 642 b 242 757 161 726 193 751 l 338 765 "},"ð":{"x_min":56.0625,"x_max":660.390625,"ha":731,"o":"m 160 835 l 160 729 l 360 833 b 458 685 396 793 433 742 b 344 710 435 700 393 710 b 56 346 129 710 56 574 b 358 -17 56 132 115 -17 b 660 346 600 -17 660 132 b 486 899 656 619 577 790 l 571 943 l 571 1049 l 416 968 b 320 1040 381 1000 347 1022 l 96 1040 b 294 904 154 1010 226 965 l 160 835 m 358 113 b 209 346 228 113 209 197 b 358 579 209 494 228 579 b 506 346 487 579 506 494 b 358 113 506 197 487 113 "},"T":{"x_min":36.75,"x_max":720.03125,"ha":772,"o":"m 720 898 l 720 1040 l 36 1040 l 36 898 l 302 898 l 302 0 l 454 0 l 454 898 l 720 898 "},"Þ":{"x_min":83.03125,"x_max":764.953125,"ha":819,"o":"m 235 195 l 411 195 b 764 520 673 195 764 349 b 411 846 764 691 673 846 l 235 846 l 235 1040 l 83 1040 l 83 0 l 235 0 l 235 195 m 235 703 l 417 703 b 598 520 570 703 598 598 b 417 337 598 442 570 337 l 235 337 l 235 703 "},"j":{"x_min":-69.421875,"x_max":264.0625,"ha":336,"o":"m -69 -363 b 240 -111 81 -363 240 -281 l 240 694 l 88 694 l 88 -80 b -69 -219 88 -166 27 -219 l -69 -363 m 65 899 b 164 798 65 843 110 798 b 264 899 219 798 264 843 b 164 1000 264 954 219 1000 b 65 899 110 1000 65 954 "},"1":{"x_min":17.6875,"x_max":340.28125,"ha":478,"o":"m 266 884 l 17 813 l 17 720 l 186 725 l 186 0 l 340 0 l 340 884 l 266 884 "},"ä":{"x_min":50.359375,"x_max":604.328125,"ha":689,"o":"m 451 478 l 451 443 l 299 431 b 50 205 145 419 50 355 b 284 -16 50 94 108 -16 b 490 55 359 -16 435 9 l 514 0 l 604 0 l 604 463 b 329 710 604 610 552 710 b 106 670 249 710 159 693 l 106 535 b 318 577 157 556 230 577 b 451 478 419 577 451 549 m 451 337 l 451 156 b 306 110 409 128 367 110 b 201 213 223 110 201 160 b 308 320 201 285 240 312 l 451 337 m 89 899 b 189 797 89 843 134 797 b 288 899 243 797 288 843 b 189 1000 288 954 243 1000 b 89 899 134 1000 89 954 m 378 899 b 477 797 378 843 423 797 b 577 899 532 797 577 843 b 477 1000 577 954 532 1000 b 378 899 423 1000 378 954 "},"<":{"x_min":103.4375,"x_max":713.21875,"ha":833,"o":"m 713 261 l 280 472 l 713 683 l 713 843 l 103 536 l 103 408 l 713 101 l 713 261 "},"£":{"x_min":31.3125,"x_max":707.78125,"ha":754,"o":"m 277 601 b 451 742 277 699 334 742 b 680 705 544 742 620 724 l 680 842 b 439 884 623 868 525 884 b 125 613 197 884 125 767 l 125 503 l 31 503 l 31 378 l 125 378 l 125 140 l 31 140 l 31 0 l 707 0 l 707 140 l 277 140 l 277 378 l 602 378 l 602 503 l 277 503 l 277 601 "},"¹":{"x_min":42.1875,"x_max":332.109375,"ha":447,"o":"m 268 1057 l 42 992 l 42 906 l 190 910 l 190 473 l 332 473 l 332 1057 l 268 1057 "},"t":{"x_min":17.6875,"x_max":485.921875,"ha":528,"o":"m 465 120 b 405 114 449 117 428 114 b 294 217 328 114 294 147 l 294 561 l 485 561 l 485 693 l 294 693 l 294 903 l 141 858 l 141 693 l 17 657 l 17 561 l 141 561 l 141 199 b 381 -17 141 49 230 -17 b 465 -7 404 -17 442 -13 l 465 120 "},"¬":{"x_min":103.4375,"x_max":713.21875,"ha":847,"o":"m 713 692 l 103 692 l 103 545 l 568 545 l 568 251 l 713 251 l 713 692 "},"ù":{"x_min":68.75,"x_max":637.6875,"ha":728,"o":"m 417 763 l 338 1040 l 154 1040 l 289 763 l 417 763 m 68 693 l 68 203 b 302 -16 68 70 130 -16 b 523 55 376 -16 453 6 l 547 0 l 637 0 l 637 693 l 485 693 l 485 155 b 328 114 448 134 399 114 b 221 217 256 114 221 146 l 221 693 l 68 693 "},"W":{"x_min":38.109375,"x_max":1165.109375,"ha":1228,"o":"m 333 220 l 200 1040 l 38 1040 l 230 -12 l 416 -12 l 601 855 l 786 -12 l 973 -12 l 1165 1040 l 1003 1040 l 869 220 l 696 1040 l 506 1040 l 333 220 "},"ï":{"x_min":-65.203125,"x_max":394.859375,"ha":357,"o":"m 268 -9 b 298 -6 284 -9 298 -6 l 298 119 b 241 172 254 119 241 133 l 241 694 l 88 694 l 88 170 b 268 -9 88 51 144 -9 m -65 899 b 34 798 -65 843 -20 798 b 133 899 88 798 133 843 b 34 1000 133 954 88 1000 b -65 899 -20 1000 -65 954 m 196 899 b 295 798 196 843 241 798 b 394 899 349 798 394 843 b 295 1000 394 954 349 1000 b 196 899 241 1000 196 954 "},">":{"x_min":103.4375,"x_max":713.21875,"ha":833,"o":"m 103 102 l 713 408 l 713 536 l 103 843 l 103 683 l 536 472 l 103 261 l 103 102 "},"v":{"x_min":17.6875,"x_max":662.859375,"ha":694,"o":"m 17 694 l 277 -12 l 402 -12 l 662 694 l 498 694 l 340 191 l 182 694 l 17 694 "},"û":{"x_min":68.921875,"x_max":638.078125,"ha":728,"o":"m 68 693 l 68 203 b 303 -16 68 70 130 -16 b 523 55 376 -16 454 6 l 548 0 l 638 0 l 638 693 l 485 693 l 485 155 b 328 114 448 134 399 114 b 221 217 256 114 221 146 l 221 693 l 68 693 m 480 763 l 609 763 l 431 1040 l 275 1040 l 97 763 l 226 763 l 353 919 l 480 763 "},"Ò":{"x_min":69.421875,"x_max":856.140625,"ha":944,"o":"m 462 -16 b 856 520 790 -16 856 226 b 462 1057 856 814 790 1057 b 69 520 134 1057 69 814 b 462 -16 69 226 134 -16 m 462 916 b 699 520 656 916 699 767 b 462 124 699 273 656 124 b 225 520 269 124 225 273 b 462 916 225 767 269 916 m 526 1103 l 447 1256 l 264 1256 l 398 1103 l 526 1103 "},"&":{"x_min":51.640625,"x_max":976.859375,"ha":1019,"o":"m 176 798 b 234 583 176 721 200 646 b 51 288 119 519 51 443 b 396 -17 51 73 192 -17 b 702 82 511 -17 614 17 b 921 -17 774 35 848 5 l 976 113 b 805 185 918 132 863 152 b 957 693 899 306 957 479 l 804 693 b 677 267 804 517 756 367 b 433 524 586 333 494 435 b 685 808 569 593 685 661 b 436 1057 685 939 627 1057 b 176 798 242 1057 176 916 m 563 172 b 395 127 519 145 456 127 b 206 292 303 127 206 170 b 298 454 206 371 232 414 b 563 172 357 358 455 242 m 325 800 b 437 912 325 862 357 912 b 538 807 514 912 538 865 b 366 643 540 729 466 696 b 325 800 337 698 325 746 "},"Ð":{"x_min":25.859375,"x_max":880.640625,"ha":965,"o":"m 447 0 b 880 520 786 0 880 224 b 447 1040 880 816 786 1040 l 144 1040 l 144 596 l 25 596 l 25 464 l 144 464 l 144 0 l 447 0 m 296 898 l 451 898 b 721 520 656 898 721 746 b 451 142 721 294 656 142 l 296 142 l 296 464 l 511 464 l 511 596 l 296 596 l 296 898 "},"I":{"x_min":104.8125,"x_max":257.25,"ha":369,"o":"m 257 0 l 257 1040 l 104 1040 l 104 0 l 257 0 "},"G":{"x_min":69.421875,"x_max":805.78125,"ha":904,"o":"m 484 -16 b 805 47 630 -16 752 18 l 805 573 l 472 573 l 472 433 l 653 433 l 653 148 b 507 129 623 137 570 129 b 225 520 300 129 225 265 b 507 911 225 767 298 911 b 781 850 605 911 686 891 l 781 1003 b 488 1057 722 1032 628 1057 b 69 520 181 1057 69 848 b 484 -16 69 192 181 -16 "},"`":{"x_min":159.25,"x_max":421.9375,"ha":731,"o":"m 421 763 l 343 1040 l 159 1040 l 294 763 l 421 763 "},"·":{"x_min":50.359375,"x_max":249.078125,"ha":306,"o":"m 50 433 b 149 331 50 377 95 331 b 249 433 204 331 249 377 b 149 534 249 488 204 534 b 50 433 95 534 50 488 "},"r":{"x_min":74.859375,"x_max":476.390625,"ha":508,"o":"m 476 701 b 404 710 457 705 432 710 b 189 637 315 710 239 679 l 164 693 l 74 693 l 74 0 l 227 0 l 227 535 b 401 576 261 557 321 576 b 476 568 432 576 460 574 l 476 701 "},"¿":{"x_min":42.859375,"x_max":615.890625,"ha":660,"o":"m 399 -216 b 196 -69 238 -216 196 -162 b 376 117 196 52 275 74 b 489 288 468 158 489 220 b 470 402 489 330 479 369 l 374 402 b 290 208 374 301 380 241 b 42 -73 162 161 42 109 b 388 -363 42 -229 98 -363 b 615 -328 478 -363 572 -347 l 615 -180 b 399 -216 569 -199 478 -216 m 502 609 b 403 710 502 664 458 710 b 304 609 349 710 304 664 b 403 508 304 553 349 508 b 502 609 458 508 502 553 "},"ý":{"x_min":17.6875,"x_max":662.859375,"ha":694,"o":"m 17 694 l 272 23 l 103 -347 l 273 -347 l 662 694 l 494 694 l 340 198 l 186 694 l 17 694 m 404 763 l 539 1040 l 355 1040 l 276 763 l 404 763 "},"x":{"x_min":20.421875,"x_max":673.75,"ha":708,"o":"m 498 0 l 673 0 l 442 356 l 658 694 l 485 694 l 347 452 l 208 694 l 35 694 l 251 356 l 20 0 l 196 0 l 347 256 l 498 0 "},"è":{"x_min":56.140625,"x_max":635.96875,"ha":708,"o":"m 56 347 b 365 -16 56 122 137 -16 b 604 26 438 -16 527 -6 l 604 159 b 388 117 544 133 473 117 b 209 290 249 117 212 185 l 633 290 b 635 358 634 312 635 334 b 358 710 635 549 597 710 b 56 347 136 710 56 570 m 358 576 b 482 398 476 576 482 492 l 209 398 b 358 576 215 502 246 576 m 422 763 l 343 1040 l 159 1040 l 294 763 l 422 763 "},"º":{"x_min":44.921875,"x_max":529.46875,"ha":586,"o":"m 529 781 b 287 1057 529 964 461 1057 b 44 781 112 1057 44 964 b 287 505 44 598 112 505 b 529 781 461 505 529 598 m 174 781 b 287 941 174 898 208 941 b 400 781 366 941 400 898 b 287 621 400 664 366 621 b 174 781 208 621 174 664 "},"Ø":{"x_min":69.078125,"x_max":856.921875,"ha":944,"o":"m 463 -16 b 856 520 791 -16 856 226 b 764 928 856 682 836 830 l 831 1041 l 719 1041 l 691 996 b 462 1057 636 1035 561 1057 b 69 520 134 1057 69 814 b 161 110 69 358 88 210 l 94 0 l 206 0 l 232 42 b 463 -16 289 4 363 -16 m 700 520 b 463 124 700 273 656 124 b 311 174 396 124 347 141 l 670 771 b 700 520 691 706 700 621 m 463 916 b 612 864 529 916 577 898 l 255 267 b 225 520 232 333 225 417 b 463 916 225 767 269 916 "},"÷":{"x_min":103.4375,"x_max":713.21875,"ha":833,"o":"m 103 398 l 713 398 l 713 546 l 103 546 l 103 398 m 308 716 b 408 614 308 660 353 614 b 507 716 462 614 507 660 b 408 817 507 771 462 817 b 308 716 353 817 308 771 m 308 235 b 408 134 308 180 353 134 b 507 235 462 134 507 180 b 408 337 507 291 462 337 b 308 235 353 337 308 291 "},"h":{"x_min":74.859375,"x_max":643.8125,"ha":728,"o":"m 491 476 l 491 0 l 643 0 l 643 490 b 409 710 643 623 582 710 b 227 659 340 710 280 691 l 227 1041 l 74 1041 l 74 0 l 227 0 l 227 538 b 383 579 264 559 313 579 b 491 476 455 579 491 547 "},".":{"x_min":50.359375,"x_max":249.078125,"ha":306,"o":"m 50 84 b 149 -16 50 29 95 -16 b 249 84 204 -16 249 29 b 149 185 249 140 204 185 b 50 84 95 185 50 140 "},";":{"x_min":23.140625,"x_max":249.078125,"ha":306,"o":"m 61 147 l 23 -173 l 130 -173 l 236 147 l 61 147 m 50 520 b 149 419 50 464 95 419 b 249 520 204 419 249 464 b 149 621 249 576 204 621 b 50 520 95 621 50 576 "},"f":{"x_min":20.421875,"x_max":519.9375,"ha":531,"o":"m 519 1040 b 408 1057 494 1050 453 1057 b 144 831 225 1057 144 979 l 144 694 l 20 657 l 20 562 l 144 562 l 144 0 l 296 0 l 296 562 l 488 562 l 488 694 l 296 694 l 296 817 b 419 923 296 896 351 923 b 519 909 466 923 495 917 l 519 1040 "},"A":{"x_min":34.03125,"x_max":837.078125,"ha":889,"o":"m 671 0 l 837 0 l 513 1053 l 357 1053 l 34 0 l 200 0 l 272 254 l 598 254 l 671 0 m 566 381 l 304 381 l 435 842 l 566 381 "},"6":{"x_min":72.140625,"x_max":744.53125,"ha":822,"o":"m 477 913 b 710 863 578 913 654 892 l 710 1009 b 465 1057 673 1028 590 1057 b 72 462 141 1057 72 815 b 419 -16 72 159 130 -16 b 744 319 700 -16 744 172 b 445 656 744 466 709 656 b 216 544 337 656 257 609 b 477 913 220 763 270 913 m 592 319 b 415 122 592 222 558 122 b 228 319 268 122 228 212 b 423 518 228 425 269 518 b 592 319 563 518 592 416 "},"O":{"x_min":69.421875,"x_max":856.140625,"ha":944,"o":"m 462 -16 b 856 520 790 -16 856 226 b 462 1057 856 814 790 1057 b 69 520 134 1057 69 814 b 462 -16 69 226 134 -16 m 462 916 b 699 520 656 916 699 767 b 462 124 699 273 656 124 b 225 520 269 124 225 273 b 462 916 225 767 269 916 "},"n":{"x_min":74.859375,"x_max":643.8125,"ha":728,"o":"m 643 0 l 643 490 b 409 710 643 623 582 710 b 189 638 336 710 258 687 l 164 694 l 74 694 l 74 0 l 227 0 l 227 538 b 383 579 264 559 313 579 b 491 476 455 579 491 547 l 491 0 l 643 0 "},"3":{"x_min":65.28125,"x_max":730.859375,"ha":811,"o":"m 322 741 b 538 584 479 741 538 685 b 372 435 538 496 484 435 l 179 435 l 179 294 l 370 294 b 571 131 504 294 571 254 b 334 -45 571 29 511 -45 b 65 5 240 -45 151 -31 l 65 -142 b 340 -190 127 -172 235 -190 b 730 131 620 -190 730 -58 b 566 374 730 259 661 349 b 698 599 642 412 698 494 b 338 884 698 773 594 884 b 66 836 234 884 122 864 l 66 688 b 322 741 149 724 231 741 "},"9":{"x_min":68.0625,"x_max":740.453125,"ha":822,"o":"m 334 -45 b 95 4 234 -45 152 -24 l 95 -141 b 347 -189 132 -160 221 -189 b 740 405 671 -189 740 52 b 393 884 740 708 683 884 b 68 548 111 884 68 695 b 367 211 68 401 103 211 b 594 323 475 211 555 258 b 334 -45 592 104 541 -45 m 220 548 b 397 745 220 645 254 745 b 583 548 544 745 583 655 b 389 349 583 442 541 349 b 220 548 249 349 220 451 "},"l":{"x_min":88.390625,"x_max":298,"ha":357,"o":"m 268 -9 b 298 -6 284 -9 298 -6 l 298 119 b 240 172 254 119 240 133 l 240 1040 l 88 1040 l 88 170 b 268 -9 88 51 144 -9 "},"¤":{"x_min":52.3125,"x_max":922.6875,"ha":994,"o":"m 108 475 b 172 233 108 369 131 290 l 52 101 l 163 -7 l 287 129 b 487 88 347 100 410 88 b 687 129 564 88 627 100 l 811 -7 l 922 101 l 802 233 b 866 475 843 290 866 369 b 802 716 866 580 843 659 l 922 848 l 811 956 l 687 820 b 487 860 627 849 564 860 b 287 820 410 860 347 849 l 163 956 l 52 848 l 172 716 b 108 475 131 659 108 580 m 272 475 b 487 711 272 663 359 711 b 702 475 615 711 702 663 b 487 238 702 286 615 238 b 272 475 359 238 272 286 "},"4":{"x_min":44.921875,"x_max":773.109375,"ha":832,"o":"m 646 884 l 528 884 l 44 183 l 44 80 l 496 80 l 496 -173 l 646 -173 l 646 80 l 773 80 l 773 226 l 646 226 l 646 884 m 227 223 l 499 624 l 496 226 l 227 223 "},"p":{"x_min":74.859375,"x_max":681.921875,"ha":753,"o":"m 409 -16 b 681 347 608 -16 681 120 b 409 710 681 574 608 710 b 189 638 318 710 249 683 l 164 694 l 74 694 l 74 -347 l 227 -347 l 227 37 b 409 -16 276 5 341 -16 m 374 114 b 227 155 302 114 254 140 l 227 538 b 374 579 254 554 302 579 b 528 347 507 579 528 476 b 374 114 528 219 507 114 "},"à":{"x_min":49.953125,"x_max":603.921875,"ha":689,"o":"m 451 478 l 451 443 l 299 431 b 49 205 145 419 49 355 b 284 -16 49 94 108 -16 b 489 55 358 -16 435 9 l 514 0 l 603 0 l 603 463 b 328 710 603 610 552 710 b 105 670 248 710 158 693 l 105 535 b 318 577 157 556 229 577 b 451 478 418 577 451 549 m 451 337 l 451 156 b 305 110 409 128 367 110 b 201 213 222 110 201 160 b 308 320 201 285 240 312 l 451 337 m 397 763 l 318 1040 l 134 1040 l 269 763 l 397 763 "},"Ü":{"x_min":76.21875,"x_max":816.671875,"ha":911,"o":"m 446 -16 b 816 327 585 -16 816 36 l 816 1040 l 664 1040 l 664 341 b 446 124 664 145 530 124 b 228 341 362 124 228 145 l 228 1040 l 76 1040 l 76 327 b 446 -16 76 36 307 -16 m 202 1179 b 302 1078 202 1124 247 1078 b 401 1179 356 1078 401 1124 b 302 1281 401 1235 356 1281 b 202 1179 247 1281 202 1235 m 491 1179 b 590 1078 491 1124 536 1078 b 690 1179 645 1078 690 1124 b 590 1281 690 1235 645 1281 b 491 1179 536 1281 491 1235 "},"ó":{"x_min":55.53125,"x_max":659.859375,"ha":731,"o":"m 421 763 l 556 1040 l 372 1040 l 293 763 l 421 763 m 357 113 b 209 347 228 113 209 198 b 357 580 209 495 228 580 b 506 347 487 580 506 495 b 357 113 506 198 487 113 m 357 -16 b 659 347 599 -16 659 133 b 357 710 659 560 599 710 b 55 347 115 710 55 560 b 357 -16 55 133 115 -16 "}}}
